<svg width="707" height="220" viewBox="0 0 707 220" fill="none" xmlns="http://www.w3.org/2000/svg">
<path d="M285.958 64.9182C276.69 55.6442 263.816 50.4919 249.741 50.4919C236.182 50.4919 223.995 55.1289 214.898 64.0595C204.256 74.5357 198.763 89.9923 198.763 109.743C198.763 129.149 204.084 144.434 214.726 155.254C223.652 164.184 237.383 169.68 250.6 169.68C263.988 169.68 277.204 164.184 285.958 154.739C296.772 143.232 301.578 128.977 301.578 108.369C301.578 90.1641 296.085 74.8791 285.958 64.9182ZM250.943 161.093C234.294 161.093 226.055 143.919 226.055 108.54C226.055 77.1118 234.637 59.5942 250.085 59.5942C256.779 59.5942 261.928 62.6855 266.048 68.8682C271.197 76.7683 274.115 93.0837 274.115 113.349C274.115 145.121 266.391 161.093 250.943 161.093Z" fill="#FBF8F4"/>
<path d="M366.631 62.6855H372.982C383.452 62.6855 386.198 64.9181 387.915 75.2225C389.803 84.4965 390.661 85.6987 397.012 85.6987H399.93V51.0071C395.81 52.8962 391.519 53.7549 387.228 53.7549H324.063C318.227 53.7549 313.078 52.8962 308.444 51.0071V85.6987H311.705C316.854 85.6987 317.884 84.1531 319.944 74.879C321.832 66.4637 323.72 63.8876 329.212 63.0289C331.615 62.8572 335.22 62.5137 336.593 62.5137H341.571V149.586C341.571 153.88 341.399 154.395 340.713 155.597C340.198 156.456 338.824 157.315 337.451 157.658L335.048 158.002C333.332 158.173 332.645 159.376 332.645 161.436V166.245H375.899V161.608C375.899 159.547 375.041 158.345 373.496 158.173L371.093 157.83C369.72 157.486 368.347 156.628 367.661 155.769C366.974 154.567 366.802 153.88 366.802 149.758L366.631 62.6855Z" fill="#FBF8F4"/>
<path d="M441.811 112.49H450.564C455.371 112.49 457.602 114.036 459.662 119.36C461.55 123.997 462.065 124.34 466.527 124.34H469.789V92.5684H465.669C462.236 92.5684 461.206 93.4271 460.005 96.8619C458.632 102.358 456.229 103.732 449.535 103.732H441.982V62.8572H455.885C467.557 62.8572 470.99 65.0898 474.08 74.8791C475.968 80.0313 476.139 80.3748 476.483 81.4052C477.684 83.9813 479.572 85.1835 482.319 85.1835H486.438V51.3506C477.856 53.755 476.311 54.0984 472.535 54.0984H407.482V58.7354C407.482 60.7963 408.169 61.9985 409.885 62.342L412.288 62.5137C413.661 62.8572 415.034 63.7159 415.549 64.5746C416.407 65.7768 416.407 66.292 416.407 70.5856V149.758C416.407 153.88 416.236 154.567 415.549 155.769C415.034 156.628 413.661 157.486 412.288 157.83L409.885 158.173C408.169 158.345 407.482 159.547 407.482 161.608V166.245H493.647V132.069H490.043C484.55 132.069 483.177 133.786 481.632 142.201C479.401 154.739 474.251 157.486 454.341 157.486H441.811V112.49Z" fill="#FBF8F4"/>
<path d="M636.455 216.393L576.036 130.523L510.125 216.393C509.61 216.909 508.923 217.252 508.237 217.252L477.684 217.424C476.826 217.424 475.968 217.08 475.624 216.222C475.281 215.535 475.281 214.676 475.796 213.989L558.872 106.823L516.647 49.6332C506.177 35.7221 497.423 26.4481 491.244 22.3264C485.065 18.2046 474.766 15.972 460.177 15.972C459.49 15.972 458.975 15.8002 458.46 15.285C457.945 14.9415 457.774 14.4263 457.774 13.7393V4.98054C457.774 3.77836 458.803 2.91965 460.005 2.91965H542.051C542.909 2.91965 543.595 3.26314 543.939 3.9501L597.32 78.3139L659.455 3.43488C659.97 2.91965 660.656 2.57617 661.343 2.57617H692.754C693.612 2.57617 694.47 3.09139 694.813 3.77836C695.157 4.46532 695.157 5.32402 694.642 6.01099L614.141 101.499L698.075 213.817C698.59 214.504 698.589 215.363 698.246 216.05C697.903 216.737 697.045 217.252 696.187 217.252L638.514 217.424C637.656 217.424 636.969 216.909 636.455 216.393Z" fill="#FBF8F4"/>
<path d="M197.047 166.589L196.875 163.326C196.875 160.75 196.36 160.234 193.099 159.032C189.666 157.658 188.465 156.8 186.233 152.506L169.756 123.138C165.293 114.895 162.546 112.834 153.278 110.258C173.875 109.227 185.375 99.4381 185.375 82.7792C185.375 72.6465 181.599 65.2617 173.875 60.1095C167.696 55.8159 161.173 54.2703 150.016 54.2703H100.583V58.9073C100.583 60.9682 101.27 62.1703 102.986 62.5138L105.389 62.6856C106.591 63.029 108.135 63.8878 108.65 64.7465C109.509 65.9486 109.509 66.6356 109.509 70.7574V149.93C109.509 154.223 109.337 154.739 108.65 155.941C108.135 156.8 106.762 157.658 105.389 158.002L102.986 158.345C101.27 158.517 100.583 159.719 100.583 161.78V166.589H143.666V161.78C143.666 159.719 142.979 158.517 141.263 158.345L139.031 158.002C137.658 157.658 136.285 156.8 135.77 155.941C134.912 154.739 134.912 154.223 134.912 149.93V62.8573H140.404C146.069 62.8573 149.33 63.5443 152.42 65.6052C157.569 69.04 160.487 75.5661 160.487 83.4662C160.487 96.862 154.479 104.247 142.464 105.621C142.464 105.621 136.972 106.479 139.203 113.693C139.89 115.925 142.293 120.562 142.636 121.249L165.808 166.589H197.047Z" fill="#FBF8F4"/>
<path d="M79.8143 60.4528C73.1202 55.3006 67.7992 54.0984 55.0976 54.0984H8.58218V58.7354C8.58218 60.7963 9.26876 61.9985 10.9852 62.3419L13.3882 62.5137C14.7614 62.8572 16.1345 63.7159 16.6494 64.5746C17.5077 65.7768 17.5077 66.4637 17.5077 70.5855V149.758C17.5077 154.052 17.336 154.567 16.6494 155.769C16.1345 156.628 14.7614 157.486 13.3882 157.83L10.9852 158.173C9.4404 158.345 8.58218 159.547 8.58218 161.608V166.589H51.6647V161.78C51.6647 159.719 50.9782 158.517 49.2617 158.345L47.0304 158.002C45.6572 157.658 44.2841 156.799 43.7691 155.941C42.9109 154.739 42.9109 154.223 42.9109 149.93V62.8572H48.4035C53.5528 62.8572 57.329 63.7159 59.5603 65.605C64.1947 69.0398 66.7694 75.9095 66.7694 84.4965C66.7694 98.4075 61.6201 105.792 50.8065 107.166C48.5751 107.51 46.5154 108.884 46.5154 111.803C46.5154 114.551 49.0901 116.44 51.3214 116.269H55.2692C65.2246 116.269 71.2321 114.895 77.5829 111.46C86.3367 106.479 91.486 96.8619 91.486 85.0117C91.486 74.5355 87.5382 66.292 79.8143 60.4528Z" fill="#FBF8F4"/>
</svg>
